<svg width="128" height="28" viewBox="0 0 128 28" fill="none" xmlns="http://www.w3.org/2000/svg">
<g clip-path="url(#clip0_37_3)">
<g clip-path="url(#clip1_37_3)">
<rect x="0.958923" y="0.599014" width="26.7994" height="26.7994" rx="13.3997" fill="#1E2127"/>
<g clip-path="url(#clip2_37_3)">
<circle cx="14.3638" cy="13.9962" r="13.3997" fill="#321E0E"/>
<path d="M19.189 39.8128H9.52225V11.9645H-0.981689V4.05073H29.693V11.9645H19.189V39.8128Z" fill="white" fill-opacity="0.1"/>
<path d="M14.3566 3.82355L15.2215 4.32298L5.53824 14.0084V8.91597L14.3566 3.82355Z" fill="url(#paint0_linear_37_3)"/>
<path d="M11.9563 20.4278L5.53824 14.0084V19.1008L13.4917 23.6937L23.175 14.0083L16.7569 7.58893L14.4388 9.90756L14.4397 9.90846L14.3576 9.99066L18.3744 14.0083L11.9563 20.4278Z" fill="url(#paint1_linear_37_3)"/>
<path d="M10.3388 14.003L16.7569 7.58362L23.175 14.003L13.4919 23.6882L14.3563 24.1899L23.176 19.0953V8.90987L15.2215 4.31767L5.53824 14.003L11.9563 20.4225L14.3566 18.0217L10.3388 14.003Z" fill="url(#paint2_linear_37_3)"/>
<path d="M14.8467 15.7079H13.8708V13.0475H13.1388V12.2914H15.5787V13.0475H14.8467V15.7079Z" fill="url(#paint3_linear_37_3)"/>
<path d="M14.361 18.0173L11.9529 20.4326L6.86606 15.3202L10.08 13.7319L14.361 18.0173Z" fill="url(#paint4_linear_37_3)"/>
<path d="M14.3319 9.98916L16.7325 7.56642L21.8353 12.6629L18.6263 14.2612L14.3319 9.98916Z" fill="url(#paint5_linear_37_3)"/>
</g>
</g>
<rect x="1.38771" y="1.02781" width="25.9418" height="25.9418" rx="12.9709" stroke="#FFA114" stroke-width="0.857582"/>
<path d="M32.515 10.231V8.08963H41.7355V10.231H38.4277V18.9987H35.8282V10.231H32.515ZM48.9199 11.3602C48.8844 10.9696 48.7264 10.666 48.4459 10.4494C48.1689 10.2292 47.7729 10.1191 47.258 10.1191C46.9171 10.1191 46.633 10.1635 46.4057 10.2523C46.1785 10.3411 46.008 10.4636 45.8944 10.6198C45.7807 10.7725 45.7221 10.9483 45.7186 11.1472C45.7115 11.3105 45.7434 11.4543 45.8145 11.5786C45.889 11.7029 45.9956 11.813 46.1341 11.9089C46.2761 12.0012 46.4466 12.0829 46.6454 12.1539C46.8443 12.2249 47.068 12.2871 47.3166 12.3403L48.2541 12.5534C48.7939 12.6706 49.2697 12.8269 49.6817 13.0222C50.0971 13.2175 50.4451 13.4501 50.7257 13.72C51.0098 13.9898 51.2246 14.3006 51.3702 14.6521C51.5158 15.0037 51.5904 15.3979 51.5939 15.8347C51.5904 16.5236 51.4164 17.1148 51.0719 17.6085C50.7275 18.1021 50.2321 18.4803 49.5858 18.743C48.943 19.0058 48.1671 19.1372 47.258 19.1372C46.3454 19.1372 45.5499 19.0005 44.8716 18.7271C44.1934 18.4536 43.666 18.0381 43.2896 17.4806C42.9132 16.9231 42.7196 16.2182 42.709 15.3659H45.2339C45.2552 15.7175 45.3493 16.0104 45.5162 16.2448C45.6831 16.4792 45.9121 16.6568 46.2033 16.7775C46.4981 16.8982 46.839 16.9586 47.226 16.9586C47.5812 16.9586 47.883 16.9107 48.1316 16.8148C48.3837 16.7189 48.5772 16.5857 48.7122 16.4153C48.8471 16.2448 48.9164 16.0495 48.9199 15.8293C48.9164 15.6234 48.8525 15.4476 48.7282 15.302C48.6039 15.1528 48.4121 15.025 48.1529 14.9185C47.8972 14.8084 47.5705 14.7072 47.1728 14.6148L46.0329 14.3485C45.0883 14.1319 44.3443 13.7821 43.801 13.2992C43.2576 12.8126 42.9878 12.1557 42.9913 11.3283C42.9878 10.6536 43.1689 10.0623 43.5346 9.55448C43.9004 9.04667 44.4064 8.65071 45.0527 8.36662C45.6991 8.08253 46.4359 7.94049 47.2633 7.94049C48.1085 7.94049 48.8418 8.08431 49.4633 8.37195C50.0883 8.65604 50.573 9.05554 50.9174 9.57046C51.2619 10.0854 51.4377 10.682 51.4448 11.3602H48.9199ZM62.828 12.042H60.1646C60.1291 11.7686 60.0563 11.5218 59.9462 11.3016C59.8361 11.0815 59.6905 10.8933 59.5094 10.737C59.3283 10.5808 59.1135 10.4618 58.8649 10.3801C58.6199 10.2949 58.3482 10.2523 58.0499 10.2523C57.5208 10.2523 57.0645 10.3819 56.6809 10.6411C56.301 10.9004 56.008 11.275 55.802 11.7651C55.5996 12.2551 55.4984 12.8482 55.4984 13.5442C55.4984 14.2686 55.6014 14.8759 55.8074 15.3659C56.0169 15.8524 56.3098 16.22 56.6863 16.4685C57.0662 16.7136 57.5155 16.8361 58.0339 16.8361C58.3251 16.8361 58.5897 16.7988 58.8276 16.7242C59.0691 16.6496 59.2804 16.5413 59.4615 16.3993C59.6461 16.2537 59.7971 16.0779 59.9143 15.872C60.035 15.6624 60.1184 15.4263 60.1646 15.1635L62.828 15.1795C62.7818 15.6624 62.6415 16.1383 62.4071 16.607C62.1763 17.0758 61.8585 17.5037 61.4537 17.8908C61.0488 18.2743 60.5552 18.5797 59.9728 18.807C59.394 19.0342 58.7299 19.1479 57.9807 19.1479C56.9934 19.1479 56.1092 18.9313 55.328 18.498C54.5503 18.0612 53.9359 17.4256 53.4849 16.5911C53.0339 15.7565 52.8084 14.7409 52.8084 13.5442C52.8084 12.3439 53.0375 11.3265 53.4956 10.492C53.9537 9.65746 54.5733 9.02358 55.3546 8.59034C56.1358 8.15711 57.0112 7.94049 57.9807 7.94049C58.6412 7.94049 59.252 8.03282 59.813 8.21748C60.3741 8.39858 60.8677 8.66492 61.2939 9.01648C61.72 9.36449 62.0662 9.7924 62.3326 10.3002C62.5989 10.808 62.764 11.3886 62.828 12.042ZM70.2334 11.3602C70.1979 10.9696 70.0399 10.666 69.7593 10.4494C69.4823 10.2292 69.0864 10.1191 68.5715 10.1191C68.2306 10.1191 67.9465 10.1635 67.7192 10.2523C67.4919 10.3411 67.3215 10.4636 67.2078 10.6198C67.0942 10.7725 67.0356 10.9483 67.0321 11.1472C67.025 11.3105 67.0569 11.4543 67.1279 11.5786C67.2025 11.7029 67.309 11.813 67.4475 11.9089C67.5896 12.0012 67.76 12.0829 67.9589 12.1539C68.1578 12.2249 68.3815 12.2871 68.6301 12.3403L69.5676 12.5534C70.1073 12.6706 70.5832 12.8269 70.9951 13.0222C71.4106 13.2175 71.7586 13.4501 72.0392 13.72C72.3233 13.9898 72.5381 14.3006 72.6837 14.6521C72.8293 15.0037 72.9039 15.3979 72.9074 15.8347C72.9039 16.5236 72.7299 17.1148 72.3854 17.6085C72.0409 18.1021 71.5456 18.4803 70.8992 18.743C70.2565 19.0058 69.4806 19.1372 68.5715 19.1372C67.6588 19.1372 66.8634 19.0005 66.1851 18.7271C65.5068 18.4536 64.9795 18.0381 64.6031 17.4806C64.2267 16.9231 64.0331 16.2182 64.0225 15.3659H66.5473C66.5686 15.7175 66.6627 16.0104 66.8296 16.2448C66.9965 16.4792 67.2256 16.6568 67.5168 16.7775C67.8115 16.8982 68.1524 16.9586 68.5395 16.9586C68.8946 16.9586 69.1965 16.9107 69.4451 16.8148C69.6972 16.7189 69.8907 16.5857 70.0257 16.4153C70.1606 16.2448 70.2299 16.0495 70.2334 15.8293C70.2299 15.6234 70.1659 15.4476 70.0416 15.302C69.9174 15.1528 69.7256 15.025 69.4664 14.9185C69.2107 14.8084 68.884 14.7072 68.4863 14.6148L67.3463 14.3485C66.4017 14.1319 65.6578 13.7821 65.1144 13.2992C64.5711 12.8126 64.3012 12.1557 64.3048 11.3283C64.3012 10.6536 64.4823 10.0623 64.8481 9.55448C65.2139 9.04667 65.7199 8.65071 66.3662 8.36662C67.0125 8.08253 67.7494 7.94049 68.5768 7.94049C69.422 7.94049 70.1553 8.08431 70.7767 8.37195C71.4017 8.65604 71.8865 9.05554 72.2309 9.57046C72.5754 10.0854 72.7512 10.682 72.7583 11.3602H70.2334ZM87.3641 12.042H84.7007C84.6652 11.7686 84.5924 11.5218 84.4823 11.3016C84.3723 11.0815 84.2267 10.8933 84.0456 10.737C83.8644 10.5808 83.6496 10.4618 83.401 10.3801C83.156 10.2949 82.8843 10.2523 82.586 10.2523C82.0569 10.2523 81.6006 10.3819 81.2171 10.6411C80.8371 10.9004 80.5441 11.275 80.3382 11.7651C80.1358 12.2551 80.0345 12.8482 80.0345 13.5442C80.0345 14.2686 80.1375 14.8759 80.3435 15.3659C80.553 15.8524 80.846 16.22 81.2224 16.4685C81.6024 16.7136 82.0516 16.8361 82.5701 16.8361C82.8613 16.8361 83.1258 16.7988 83.3637 16.7242C83.6052 16.6496 83.8165 16.5413 83.9976 16.3993C84.1823 16.2537 84.3332 16.0779 84.4504 15.872C84.5711 15.6624 84.6546 15.4263 84.7007 15.1635L87.3641 15.1795C87.3179 15.6624 87.1777 16.1383 86.9433 16.607C86.7125 17.0758 86.3946 17.5037 85.9898 17.8908C85.585 18.2743 85.0914 18.5797 84.509 18.807C83.9301 19.0342 83.2661 19.1479 82.5168 19.1479C81.5296 19.1479 80.6453 18.9313 79.8641 18.498C79.0864 18.0612 78.472 17.4256 78.0211 16.5911C77.5701 15.7565 77.3446 14.7409 77.3446 13.5442C77.3446 12.3439 77.5736 11.3265 78.0317 10.492C78.4898 9.65746 79.1095 9.02358 79.8907 8.59034C80.672 8.15711 81.5473 7.94049 82.5168 7.94049C83.1773 7.94049 83.7881 8.03282 84.3492 8.21748C84.9103 8.39858 85.4039 8.66492 85.83 9.01648C86.2561 9.36449 86.6024 9.7924 86.8687 10.3002C87.135 10.808 87.3002 11.3886 87.3641 12.042ZM88.8729 18.9987V8.08963H91.5096V12.4682H95.8082V8.08963H98.4396V18.9987H95.8082V14.6148H91.5096V18.9987H88.8729ZM102.453 18.9987H99.6195L103.3 8.08963H106.811L110.491 18.9987H107.658L105.095 10.8382H105.01L102.453 18.9987ZM102.075 14.7054H107.998V16.7082H102.075V14.7054ZM114.303 8.08963V18.9987H111.666V8.08963H114.303ZM125.242 8.08963V18.9987H123.005L118.664 12.7026H118.595V18.9987H115.958V8.08963H118.227L122.52 14.3751H122.611V8.08963H125.242Z" fill="url(#paint6_linear_37_3)"/>
</g>
<defs>
<linearGradient id="paint0_linear_37_3" x1="22.9607" y1="13.7908" x2="6.36928" y2="6.92012" gradientUnits="userSpaceOnUse">
<stop stop-color="#FFDA57"/>
<stop offset="1" stop-color="#F48A00"/>
</linearGradient>
<linearGradient id="paint1_linear_37_3" x1="22.9607" y1="13.7908" x2="6.36928" y2="6.92012" gradientUnits="userSpaceOnUse">
<stop stop-color="#FFDA57"/>
<stop offset="1" stop-color="#F48A00"/>
</linearGradient>
<linearGradient id="paint2_linear_37_3" x1="5.7146" y1="14.2538" x2="19.9335" y2="22.6688" gradientUnits="userSpaceOnUse">
<stop stop-color="#FFD956"/>
<stop offset="1" stop-color="#F48A00"/>
</linearGradient>
<linearGradient id="paint3_linear_37_3" x1="13.3634" y1="12.6347" x2="15.8833" y2="13.8375" gradientUnits="userSpaceOnUse">
<stop stop-color="#FEDE72"/>
<stop offset="1" stop-color="#FF9200"/>
</linearGradient>
<linearGradient id="paint4_linear_37_3" x1="9.53319" y1="15.4728" x2="13.1419" y2="19.246" gradientUnits="userSpaceOnUse">
<stop stop-color="#FFEBB9" stop-opacity="0"/>
<stop offset="1" stop-color="#D97B01"/>
</linearGradient>
<linearGradient id="paint5_linear_37_3" x1="19.1677" y1="12.5186" x2="15.5472" y2="8.75668" gradientUnits="userSpaceOnUse">
<stop stop-color="#FFEBB9" stop-opacity="0"/>
<stop offset="1" stop-color="#D97B01"/>
</linearGradient>
<linearGradient id="paint6_linear_37_3" x1="32.0463" y1="13.9987" x2="127.046" y2="13.9987" gradientUnits="userSpaceOnUse">
<stop stop-color="#FFA114"/>
<stop offset="1" stop-color="#FFC72B"/>
</linearGradient>
<clipPath id="clip0_37_3">
<rect width="128" height="28" fill="white"/>
</clipPath>
<clipPath id="clip1_37_3">
<rect x="0.958923" y="0.599014" width="26.7994" height="26.7994" rx="13.3997" fill="white"/>
</clipPath>
<clipPath id="clip2_37_3">
<rect width="26.7994" height="26.7994" fill="white" transform="translate(0.961517 0.59774)"/>
</clipPath>
</defs>
</svg>
